<svg width="200" height="64" viewBox="0 0 200 64" fill="none" xmlns="http://www.w3.org/2000/svg">
<path d="M61.5312 49.3125C59.0443 49.3125 57.0391 48.5378 55.5156 46.9883C54.0052 45.4388 53.25 43.2708 53.25 40.4844V24.625C53.25 21.2917 53.9076 18.7396 55.2227 16.9688C56.5508 15.1979 58.7057 14.3125 61.6875 14.3125C63.3151 14.3125 64.7604 14.612 66.0234 15.2109C67.2995 15.8099 68.3021 16.7083 69.0312 17.9062C69.7604 19.0911 70.125 20.5885 70.125 22.3984V28.3359H63.2891V23.2578C63.2891 22.2292 63.1589 21.5391 62.8984 21.1875C62.638 20.8229 62.2344 20.6406 61.6875 20.6406C61.0495 20.6406 60.6198 20.875 60.3984 21.3438C60.1771 21.7995 60.0664 22.4115 60.0664 23.1797V40.3867C60.0664 41.3372 60.2031 42.0078 60.4766 42.3984C60.763 42.7891 61.1667 42.9844 61.6875 42.9844C62.2734 42.9844 62.6836 42.7435 62.918 42.2617C63.1654 41.7799 63.2891 41.1549 63.2891 40.3867V34.1953H70.2031V40.6992C70.2031 43.7201 69.4414 45.9141 67.918 47.2812C66.3945 48.6354 64.2656 49.3125 61.5312 49.3125ZM80.9062 49.3125C75.0729 49.3125 72.1562 46.2852 72.1562 40.2305V28.4727C72.1562 25.7122 72.931 23.5117 74.4805 21.8711C76.0299 20.2174 78.1719 19.3906 80.9062 19.3906C83.6536 19.3906 85.8021 20.2174 87.3516 21.8711C88.901 23.5117 89.6758 25.7122 89.6758 28.4727V40.2305C89.6758 46.2852 86.7526 49.3125 80.9062 49.3125ZM80.9062 43.9219C81.4922 43.9219 81.9089 43.7135 82.1562 43.2969C82.4167 42.8672 82.5469 42.3268 82.5469 41.6758V27.3594C82.5469 25.6536 82 24.8008 80.9062 24.8008C79.8125 24.8008 79.2656 25.6536 79.2656 27.3594V41.6758C79.2656 42.3268 79.3893 42.8672 79.6367 43.2969C79.8971 43.7135 80.3203 43.9219 80.9062 43.9219ZM92.2734 49V19.7031H99.1094V23.1016C99.4219 21.9036 99.9557 20.9857 100.711 20.3477C101.466 19.7096 102.573 19.3906 104.031 19.3906C105.203 19.3906 106.199 19.6641 107.02 20.2109C107.853 20.7448 108.439 21.4544 108.777 22.3398C109.311 21.3763 109.936 20.6471 110.652 20.1523C111.382 19.6445 112.417 19.3906 113.758 19.3906C115.385 19.3906 116.635 19.7422 117.508 20.4453C118.393 21.1354 119.005 22.099 119.344 23.3359C119.695 24.5599 119.871 25.9792 119.871 27.5938V49H112.898V27.4766C112.898 25.5885 112.417 24.6445 111.453 24.6445C110.945 24.6445 110.555 24.8203 110.281 25.1719C110.008 25.5104 109.819 25.9336 109.715 26.4414C109.611 26.9492 109.559 27.457 109.559 27.9648V49H102.586V27.4766C102.586 26.8646 102.508 26.2526 102.352 25.6406C102.208 25.0286 101.831 24.7227 101.219 24.7227C100.698 24.7227 100.294 24.9115 100.008 25.2891C99.7214 25.6667 99.526 26.1354 99.4219 26.6953C99.3177 27.2422 99.2656 27.7826 99.2656 28.3164V49H92.2734ZM122.625 53.8828V19.7031H129.734V22.8281C130.164 21.7474 130.757 20.9076 131.512 20.3086C132.28 19.6966 133.374 19.3906 134.793 19.3906C136.707 19.3906 138.055 20.0872 138.836 21.4805C139.63 22.8737 140.027 24.6966 140.027 26.9492V41.3633C140.027 42.8607 139.812 44.2148 139.383 45.4258C138.966 46.6237 138.302 47.5742 137.391 48.2773C136.492 48.9674 135.314 49.3125 133.855 49.3125C131.954 49.3125 130.581 48.1667 129.734 45.875V53.8828H122.625ZM131.395 43.8633C132.124 43.8633 132.56 43.4987 132.703 42.7695C132.859 42.0404 132.938 41.1419 132.938 40.0742V28.6289C132.938 27.5482 132.859 26.6497 132.703 25.9336C132.56 25.2044 132.124 24.8398 131.395 24.8398C130.639 24.8398 130.171 25.2109 129.988 25.9531C129.819 26.6823 129.734 27.5742 129.734 28.6289V40.0742C129.734 41.1289 129.819 42.0273 129.988 42.7695C130.171 43.4987 130.639 43.8633 131.395 43.8633ZM148.035 49.3125C146.408 49.3125 145.164 48.9349 144.305 48.1797C143.458 47.4245 142.879 46.3893 142.566 45.0742C142.254 43.7591 142.098 42.2682 142.098 40.6016C142.098 38.8177 142.273 37.3594 142.625 36.2266C142.977 35.0807 143.576 34.1432 144.422 33.4141C145.281 32.6849 146.46 32.0664 147.957 31.5586L152.293 30.0742V27.0664C152.293 25.4909 151.779 24.7031 150.75 24.7031C149.812 24.7031 149.344 25.3411 149.344 26.6172V28.375H142.547C142.534 28.2708 142.527 28.1406 142.527 27.9844C142.527 27.8151 142.527 27.6263 142.527 27.418C142.527 24.5013 143.211 22.4375 144.578 21.2266C145.958 20.0026 148.139 19.3906 151.121 19.3906C152.684 19.3906 154.083 19.6706 155.32 20.2305C156.557 20.7773 157.534 21.5911 158.25 22.6719C158.979 23.7526 159.344 25.0872 159.344 26.6758V49H152.391V45.5234C152.052 46.7474 151.492 47.6849 150.711 48.3359C149.93 48.987 149.038 49.3125 148.035 49.3125ZM150.789 43.8828C151.362 43.8828 151.753 43.6419 151.961 43.1602C152.169 42.6784 152.273 42.1576 152.273 41.5977V33.4336C151.31 33.8242 150.561 34.319 150.027 34.918C149.493 35.5039 149.227 36.3698 149.227 37.5156V41.2852C149.227 43.0169 149.747 43.8828 150.789 43.8828ZM162.039 49V19.7031H169.031V23.4336C169.292 22.3138 169.773 21.3633 170.477 20.582C171.193 19.7878 172.182 19.3906 173.445 19.3906C175.477 19.3906 176.948 20.0156 177.859 21.2656C178.784 22.5156 179.246 24.2279 179.246 26.4023V49H172.352V27.125C172.352 26.5521 172.234 26.0247 172 25.543C171.766 25.0482 171.362 24.8008 170.789 24.8008C170.255 24.8008 169.858 24.9896 169.598 25.3672C169.35 25.7318 169.194 26.194 169.129 26.7539C169.064 27.3008 169.031 27.8477 169.031 28.3945V49H162.039ZM181.434 53.8828V49.4492H184.793C185.301 49.4492 185.555 49.2734 185.555 48.9219C185.555 48.7396 185.535 48.5508 185.496 48.3555L180.906 19.7031H187.605L189.559 41.2656L191.863 19.7031H198.602L193.172 50.5234C192.977 51.6302 192.599 52.4635 192.039 53.0234C191.492 53.5964 190.587 53.8828 189.324 53.8828H181.434Z" fill="white"/>
<path d="M0 32.5V54H43V11H0V32.5ZM34.6526 30.7872C35.7455 31.0595 36.5769 31.545 37.3419 32.337C37.7379 32.7598 38.3255 33.5302 38.3721 33.7165C38.3865 33.7703 36.516 35.0245 35.3836 35.7286C35.3424 35.7555 35.1776 35.5781 34.9948 35.3057C34.4394 34.4995 33.8607 34.1519 32.9738 34.091C31.6695 34.0014 30.831 34.684 30.8382 35.8235C30.8263 36.1038 30.8894 36.3821 31.0209 36.6298C31.3076 37.2228 31.8415 37.5794 33.5113 38.3014C36.5912 39.6272 37.9081 40.4998 38.7269 41.7414C39.6406 43.1264 39.8467 45.3391 39.225 46.9838C38.5441 48.7719 36.851 49.9867 34.4681 50.388C33.7317 50.5188 31.9848 50.4991 31.1929 50.3557C29.4657 50.0476 27.8282 49.1948 26.8177 48.075C26.4217 47.6396 25.6495 46.4983 25.6979 46.4177C25.7176 46.389 25.895 46.2797 26.092 46.165C26.2855 46.0558 27.0076 45.6383 27.6902 45.2423L28.9265 44.5257L29.1863 44.9091C29.5482 45.4609 30.3383 46.2188 30.8167 46.4714C32.1891 47.1952 34.0721 47.0931 35.0002 46.26C35.1868 46.1028 35.3346 45.9045 35.4319 45.6808C35.5291 45.457 35.5733 45.2137 35.561 44.97C35.561 44.4719 35.4983 44.2533 35.2385 43.8771C34.9052 43.4005 34.2226 42.9992 32.284 42.1571C30.066 41.2021 29.111 40.6091 28.2367 39.6667C27.691 39.0447 27.288 38.3109 27.056 37.5167C26.8929 36.9093 26.8517 35.3864 26.9807 34.7736C27.4376 32.629 29.0555 31.1365 31.39 30.6922C32.1479 30.5489 33.9091 30.6026 34.6526 30.7872ZM24.5584 32.5824L24.5727 34.3436H18.9737V50.2465H15.0142V34.3436H9.42058V32.6165C9.42058 31.6597 9.44029 30.8606 9.46717 30.8427C9.48867 30.814 12.8946 30.7997 17.0226 30.8069L24.5387 30.8284L24.5584 32.5824Z" fill="white"/>
</svg>
